# xmcd
# 
# Track frame offsets:
#     187
#     21082
#     39870
#     62715
#     80562
#     99460
#     118702
#     137350
#     157190
#     178732
# 
# Disc length: 2669
# 
# Revision: 5
# Processed by: cddbd v1.5.2PL0 Copyright (c) Steve Scherf et al.
# Submitted via: fre:ac v1.0.31
# 
DISCID=7c0a6b0a
DTITLE=Richard Elliot - What's Inside
DYEAR=1990
DGENRE=Jazz
TTITLE0=Take Your Time
TTITLE1=Just Me and You
TTITLE2=Movers and Shakers
TTITLE3=Sea Breeze
TTITLE4=Well, Hold On a Second
TTITLE5=Imagine
TTITLE6=Rise and Shine
TTITLE7=I Believe You
TTITLE8=West End
TTITLE9=Cantiba
EXTD=YEAR: 1990
EXTT0=
EXTT1=
EXTT2=
EXTT3=
EXTT4=
EXTT5=
EXTT6=
EXTT7=
EXTT8=
EXTT9=
PLAYORDER=
